<svg xml:space="preserve" width="16" height="16" xmlns="http://www.w3.org/2000/svg"><path d="M76.5 68s-.5 1.7-2.4 1c-2-.6-1.3-2.2-1.3-2.2-1.4.3-2.4-.6-2-1.4-1.3 1.3-6.9 1-5.8-5.3-.5.2-.7-.5-.7-.5-1.5 1.3-5.5 0-3.7-2.5 0 0-3.4-.9-1.5-2.9 0 0-1.6-1.4-.6-3 1-1.8 2.7-1 2.7-1s-1.8-4.2 3-3.8c.1-1.5 2.7-1.5 2.7-1.5s0-3.4 2.4-3.6c.7-2.1 5.2-3.4 6.6-1 .6-.8 1.7.2 1.7.2 0-1 2-1.6 3.9-.2 1.3-2.8 9.3-3.4 7.5 3 1.7-.5 2.6.6 2.1 1.3 1.2-1 2.8.5 1 2.1 4-1.3 6.8 2.8 6 4.5-.6 1.8-3.7 2.2-3.7 2.2s3.6 2.7-.5 4.8c1.5 1.9.8 6.5-5.8 5-.2.5-.8.7-.8.7 1.7.8-.7 4.3-4.5 2-.6 4-4.9 4.6-6.3 2.1" style="fill:#539832;fill-opacity:1;fill-rule:nonzero;stroke:none;stroke-width:.1" transform="matrix(.15515 0 0 -.15515 .4 17)"/><path d="M86 41.6c-.6 0-1.2.3-1.6.7-.2.1-.3.3-.3.4a3 3 0 0 0-.9-.4 2 2 0 0 0-.5 0c-.8 0-1.5.3-1.5.8-.7-.4-1.6-.8-2.5-.8-.6 0-1.2.2-1.6.8l1.4.8s-.4.3-.7.9l-1-.5v1c-.4 0-.8.1-1 .3-.6-1-1.7-1.8-2.8-1.8a2 2 0 0 0-.6.1c-.7.3-1.3.8-1.4 1.4h-.2l-.9.3.4.1 5.3 2-1.2.5c-1-.3-2.5-.7-3.3-.7l-.5.1v.1c0 .7 1.7 3.6 1.7 3.6h-1.1l-.5-.1-.6-1.4v.2c-.3-.9-1-2.1-2.3-3.4h-.4c-.5 0-1 .1-1.4.5l-.6.6a3 3 0 0 0-1.4-.4c-1 0-1 .8-.7 1.5-1.3 0-2 .8-1.7 1.9l-1.3-.7c-.5 0-1 .2-1.6.8 0 .5.1 1 .5 1.4.3.2.8.4 1.2.4l.4-.1a2.2 2.2 0 0 0 2 .7c-.6 1.6 2.1 3.4 4.4 3.4 1 0 1.9-.3 2.4-1.1h.3l.6.1c.6 0 1-.2 1.5-.5.7.6 1.9.9 3 .9h.1c.2.7.9 1.5 1.4 2a3 3 0 0 0 2.6.7c-.7 1.3-.2 3 1.1 4 .5.4 1 .7 1.7.8.5.8 1.5 1.5 2.5 1.5a2 2 0 0 0 1.1-.3c1-.7 1-2 .5-3a4 4 0 0 0 1.5.1c1.2-.1 1.6-.9 1.6-1.8a4.8 4.8 0 0 0 3.8 1.9c.5 0 1-.2 1.4-.4-.5 1-1.7 2-3.7 2-.7 0-1.5-.2-2.5-.4-.2.6-.8.8-.8.8s.6-.2.8-.8l2.5.3c2.9 0 4-1.7 4-3.2 0-.8-.3-1.5-.7-2 1.5-.8 2-1.6 2-2.3 0-1.4-1.5-2.5-1.5-2.5h.1-.1c.6-.4 1.3-.8 1.4-1.4.2-.8.1-1.7-.4-2.3-.8-1-2-1.7-3.3-1.7-.4 0-1 0-1.4.3a2 2 0 0 0 .2-1.6c-.2-.5-.5-.7-.9-.7H90c.1-.5 0-1.1-.7-1.5a1.6 1.6 0 0 0-1.3-.2c.1-1-.2-2-1-2.4-.3-.2-.6-.3-1-.3M78 51c-.5-.8-.4-1.7.3-2-.3-.8-.2-1.7.7-1.9-.8-.7-.3-2.2.7-2.8.4-.2.8-.2 1.1-.2 1.3 0 2.4 1 2.6 2.2l.6-.2c.2 0 .4 0 .6.2.7.3.8 1.3.8 2h.3c.5-.7 1-1 1.7-1 .5 0 1.1.2 1.6.7.7.6 1 1.5.4 2 2 .3 4 1.6 3.9 3.4 0 .9-.7 1.2-1.5 1.2-.5 0-1.2-.2-1.8-.4 1 1.1 1.4 2.8-.6 3.2h-.5a4 4 0 0 1-1.5-.3 1.4 1.4 0 0 1-1.2.6c-.5 0-1-.2-1.5-.5.8 1.5 1.4 3.8-.4 4.7-.3.2-.7.3-1.1.3-.7 0-1.5-.3-1.9-.8-.6-.8-.6-1.8-.2-2.7-.9-.2-1.2-1-1.1-1.7a2 2 0 0 1-2.6 0 2 2 0 0 1-.6-1 1.6 1.6 0 0 1-.5.1c-1.2-.1-2-.8-2.6-1.7-.4.3-.7.5-1.1.5a2 2 0 0 1-1.3-.6c0 .5-.5.7-1 .7-.4 0-1-.2-1.3-.5 0 .7-.4 1-1 1-1.4 0-4-2-3-2.8-1.5-.4-3-1.9-1.4-3 .2-.3.5-.4.9-.4 1 0 2.2.8 3 1.5 0-.5.3-1 1-1l.3.1c.9.2 1.4 1 1.7 1.9l.5-.2a4 4 0 0 1 2 .8c-.2-1.3 1.2-1.8 2.7-1.8.8 0 1.6.1 2.2.4m10.9-5.5c-.3-.2-.5-.4-.2-.6H88.8c.2 0 .5.3.3.5h-.4m5.6 5.7c-.4 0-.8-.1-1-.3-.7-.3-1.5-.8-1.4-1.5V49l.2-.1c.1-.2.3-.2.5-.2l.7.1c.4.2 1 .4 1.2.7.4.4.9 1.2.2 1.5a1 1 0 0 1-.4.1m-35.7 0" style="fill:#3d7e22;fill-opacity:1;fill-rule:nonzero;stroke:none;stroke-width:.1" transform="matrix(.15515 0 0 -.15515 .4 17)"/><path d="M98.2 51.2c-.6 1.6-3.1 2-3.7 2.2.6-.1 3-.6 3.7-2.2" style="fill:#b5c9a9;fill-opacity:1;fill-rule:nonzero;stroke:none;stroke-width:.1" transform="matrix(.15515 0 0 -.15515 .4 17)"/><path d="M85.6 38.3c-1.7 0-3.6.8-4.1 2-.8-.6-1.6-.8-2.3-.8-.9 0-1.5.4-1.6 1 0 0-.6-.5-1.1-.5-.2 0-.4 0-.6.2-.5-.8-1.5-1.2-2.5-1.2a5 5 0 0 0-3.7 1.6c2.3.5 4.4 1 7.4 2.5.4-.6 1-.8 1.6-.8.9 0 1.8.4 2.5.8 0-.5.7-.8 1.5-.8h.5l.9.4.3-.4c.4-.4 1-.7 1.6-.7l.9.3c.8.5 1.1 1.5 1 2.4h.5c.2 0 .5 0 .8.2.6.4.8 1 .7 1.5h.1c.4 0 .7.2.9.7a2 2 0 0 1-.2 1.6l1.4-.3c1.3 0 2.5.7 3.3 1.7.5.6.6 1.5.4 2.3-.1.6-.8 1-1.4 1.3l.1.1c.6-.1 3-.6 3.7-2.2v-.6c0-1.6-1.8-4.1-4.5-4.1-.5 0-1 0-1.5.2.5-.5.8-1 .8-1.4 0-.6-.5-1-1-1l-.9.3.1-.4c0-.5-.5-1-1.5-1H89a6 6 0 0 0 .3-1.7c0-2.3-1.8-3.2-3.7-3.2m-17.2 3.3c-.6.3-.9.8-1.1 1.3.7 1.1 1.5 2 2.6 2.7a1.7 1.7 0 0 1 1.1-.3c.1-.6.7-1.1 1.4-1.4h.6c1.1 0 2.2.8 2.8 1.7.2-.2.6-.3 1-.3v-1c-2.6-1-5.8-2.3-8.4-2.7M65.8 45c-.7.2-1.5.6-1.5 1.4h-.7c-2.2 0-2.7 1.2-2.7 2.2 0 .9.3 1.7.3 1.7s-.4-.3-1-.3l1.4.7c-.3-1 .4-1.8 1.7-2-.4-.6-.3-1.4.7-1.4h.2c.4 0 .8.2 1.2.4l.6-.6a2.4 2.4 0 0 1 1.8-.5L66 45.1h-.2" style="fill:#2b6316;fill-opacity:1;fill-rule:nonzero;stroke:none;stroke-width:.1" transform="matrix(.15515 0 0 -.15515 .4 17)"/><path d="M58.7 50.8" style="fill:#b5c9a9;fill-opacity:1;fill-rule:nonzero;stroke:none;stroke-width:.1" transform="matrix(.15515 0 0 -.15515 .4 17)"/><path d="M58.7 50.8a3 3 0 0 0-.1.3c.1 1.3.4 2.5.8 3.9h.7c2.4 0 5.1 1.4 5.4 3.2 0 0 2.7-1.8 5.9-1.8a7 7 0 0 1 3.5.9c2.4 1.4 3 2.8 3 3.9 0 .6-.2 1.2-.4 1.7h.2c1.8 0 3.8 2.8 3.8 4.4v.4c.3-.4.6-.6 1-.8.2-.3.2-.6.3-1 1 .5 1.8.8 2.5.8 1.5 0 2.5-1.1 2.5-2 0-.4-.1-.7-.5-.8 0 0 .6-.2.8-.8l2.5.3c2 0 3.2-.8 3.7-1.9a3.4 3.4 0 0 1-1.6.4c-1.5 0-2.7-.9-3.6-2 0 1-.4 1.8-1.6 2h-.4a4 4 0 0 1-1-.2c.4 1 .5 2.3-.6 3a2 2 0 0 1-1 .3c-1 0-2-.7-2.6-1.5-.6-.1-1.2-.4-1.7-.8-1.3-1-1.8-2.7-1.1-4a3 3 0 0 1-2.6-.7 4.6 4.6 0 0 1-1.4-2H75c-1.1 0-2.3-.3-3-.9-.4.3-.9.5-1.5.5H70l-.3-.1c-.5.8-1.4 1-2.4 1-2.3 0-5-1.7-4.3-3.3h-.4c-.6 0-1.3-.3-1.7-.7h-.4a2 2 0 0 1-1.2-.3c-.4-.4-.5-.9-.5-1.4" style="fill:#2b6316;fill-opacity:1;fill-rule:nonzero;stroke:none;stroke-width:.1" transform="matrix(.15515 0 0 -.15515 .4 17)"/><path d="M39.2 50.2s6.8 1.7 2.5 6.1c.6 1.5-2.2 3-3.6 2.4 2.5 1.8 2 6.5-2.5 6.4 0 0 2.3 6.7-6.8 5.9 1.3 3.5-4.3 5-6.7 2-1.6 2.8-5.7 1.1-6-1.2-1.6 3.6-10 2.2-8.6-4-2.7 1-3.4-1-3.1-2.2-2.7 1.4-6.6-2.8-2.6-6-3-1.1-1.9-5.2.4-5.3-2.3-2.4.4-2.6 1.1-2.8-1.6-2.9 0-5.1 2.5-3.9-.8-3 3.6-1.2 3.6-1.2-.7-3.7 5.7-6.6 7.6-3.4.6-3 3.5-1.3 3.5-1.3.2-2.2 6.4-1.9 6.4 1 2.4-2.7 7.3.9 6.6 2.6 2.7-.8 6.2 1.4 5.7 4.9" style="fill:#509d32;fill-opacity:1;fill-rule:nonzero;stroke:none;stroke-width:.1" transform="matrix(.15515 0 0 -.15515 .4 17)"/><path d="M14.3 41.6c-2.2 0-5 2-5 4.3l.1.5S8.1 46 7 46c-.7 0-1.3.2-1.3 1v.7l-1.2-.3c-1.1 0-1.8.8-1.8 2 0 .7.2 1.4.6 2.2-.5.2-2 .3-2 1.3 0 .3.2.9.9 1.5-1.3.1-2.2 1.4-2.2 2.8 0 1 .5 2 1.8 2.5-1.2 1-1.7 2-1.7 3 0 1.8 1.6 3.3 3.2 3.3.3 0 .7 0 1-.3v.5c0 1 .5 2 2 2 .3 0 .7 0 1.2-.2l-.1 1.3c0 3 2.7 4.6 5.1 4.6 1.6 0 3-.7 3.7-2 .1 1.5 1.8 2.7 3.5 2.7-.3 0-.7 0-1-.2 0-.3.2-.6.4-.9.2-.4.5-.7.8-.9.3-.9 1-1.8 2-2.4a6.3 6.3 0 0 1 3.6-1c-.7-1-.3-2.4.7-3.3 0-.3.2-.6.3-.8-1-.3-2-.7-2.3-1.7 0-.6.2-1.2.7-1.6.4-.3.8-.5 1.1-.5.7 0 1.2.5 1.6 1l2.6-2.3c-.4-.3-.8-.4-1.2-.4-.6 0-1.3.3-1.7.8-.4-1-1.5-1.5-2.7-1.7l.2-.5-2 1.5H22.3l.5-2s2.4-2 4.2-2.9l1-.6 3-1.4.7-.4c0-.4-.4-.7-.7-1 1 0 1.9-.6 1.7-1.6-.1-.7-.7-1-1.3-1h-.2c.8-1.4-.3-3-1.7-3a2 2 0 0 0-1.3.5l-.3-.9-.9.2c-1.1 0-2.5-.6-3-1.9l-.4.8a3.1 3.1 0 0 0-2.6-1.7c-1 0-1.3.6-1 1.3l-1.3-.3c-.6 0-1.1.2-1.7.4-.3-.7-1.1-1.4-1.8-1.4-.3 0-.6.2-.7.6-.5-.5-1.3-1-2-1.2.6-.3 1.3-.5 2-.5m1.8 4.5c.3-.5.7-.9 1.2-1.2l.9-.2c.7 0 1.3.6 1.6 1.3.3-.6.7-.8 1.3-.8a4 4 0 0 1 2.5 1.1c.5.5.8 1 1 1.5 1 .1 1.8.4 2.4.8.6.4.7 1 .6 1.6-.1.5-.5.6-1 .6 1 .8 1.3 1.8.3 2.8-.5.4-1 .7-1.6.7a2 2 0 0 1-1.5-.7c-.3 1-1.1 1.5-2.2 1.5H21c-1.6-.3-2.3-1.5-2.7-2.7-.3.6-.7.9-1.2.9-.8 0-1.8-.8-2.3-1.6-1.7-.2-2.7-2.2-1.9-3.1-1.9-.5-2.5-3.4 0-3.8h.5c1 0 2 .5 2.8 1.3M29 47.7a.8.8 0 0 1-.7-.4c0-.2 0-.5.3-.5s.6.2.7.4c0 .2 0 .5-.3.5M5.5 51H5.2a2 2 0 0 1-1.6-1.2c-.2-.7.5-1.3 1.2-1.3h.3c.7.2 1.4.8 1.6 1.5.2.7-.5 1-1.2 1m25-.2c-.6 0-1-.4-1.2-.8-.1-.2-.2-.6 0-.8V49c0-.2.2-.3.3-.3h.3c.3 0 .7.2 1 .4.3.3.6.7.4 1.2 0 .3-.4.4-.7.4m-21.7-.4c-.4 0-.9-.2-1-.5l.2-.4v-.1c0-.2 0-.3.2-.3l1 .5v.4L9 50v.3M4.3 57c-.1-.4 0-1 .7-1.1a.9.9 0 0 1-.2-.6c-1.4-.1-2.6-1.8-.7-2.3l.6-.1c1.6 0 3 1.5 3.2 2.8.2-.2.5-.2.8-.2.4 0 .8 0 1 .3.6.3.9.8 1 1.4a1.5 1.5 0 0 1 .6-.2c.4 0 .8.3 1 .6.5-.3 1.2-.4 1.6-.4 1 0 1.5 1 1.4 1.8h.3c.7 0 1.5.5 1.8 1 .3.5.4 1 .4 1.4h.2c.9.3 1.6.9 1.9 1.7v.4c1.2 0 2.5.5 3.2 1.1 1 1 .3 1.8-.8 2 .5.5.7 1.3.1 1.8-.4.4-1 .6-1.7.6L20 69c.2.6 0 1.3-.2 1.7-.3.4-.7.6-1.2.6a2 2 0 0 1-1-.3c-.7-.5-.7-1.4-.6-2.2l-.8.2c-.2 0-.5 0-.7-.2.4 1 .5 2.5-.7 3.1l-.7.2a2 2 0 0 1-.9-.2c0 .6-.5.8-1.1.8-1 0-2.2-.8-2-1.7-.4-.1-.8-.9-.6-1.5-.8 0-1.1-.6-1.2-1.4v-.7h-.2c-.6 0-1.1-.1-1.6-.5-.4-.4-.6-.9-.5-1.3-.5-.4-.9-1-.8-1.7-.4.2-1 .4-1.4.4-.5 0-1-.2-1.3-.8-.8-1.3.1-2.6 1.5-2.8-.1-.5-.1-1 .3-1.4-.8-.1-1.6-.5-1.5-1.4.2-.6.8-.8 1.4-.8h.2m-1.7 0c-.4 0-.7-.1-.9-.3v-.1a1 1 0 0 1-.4-.6c0-.5.3-1 1-1s1.5.7 1.3 1.4a1 1 0 0 1-.8.6h-.2m26.7-2.3c-1.1.5-2 1-3 1.8.9 0 1.7-.2 2.3-.5.8-.3.9-.8.7-1.3m1.4 6A124.8 124.8 0 0 0 28 63c1.5-1.1 3.1-1.2 3.1-1.2l-.3-1.2" style="fill:#3b8222;fill-opacity:1;fill-rule:nonzero;stroke:none;stroke-width:.1" transform="matrix(.15515 0 0 -.15515 .4 17)"/><path d="M20.3 74.4" style="fill:#bbd3ad;fill-opacity:1;fill-rule:nonzero;stroke:none;stroke-width:.1" transform="matrix(.15515 0 0 -.15515 .4 17)"/><path d="M26 61.2c-.3 0-.7.2-1.1.5-.5.4-.8 1-.7 1.6.2 1 1.4 1.4 2.3 1.7.4-.8 1-1.4 1.5-1.9l-.4.2-.5-.1-.5-.2 1-.8c-.4-.5-1-1-1.6-1m.2 4.6c-1 1-1.4 2.3-.7 3.3H25.8v-.8c0-1 .2-1.8.4-2.5m-6.3 6.7c-.3.2-.6.5-.8 1l-.4.8a3.7 3.7 0 0 0 1.6 0 2.1 2.1 0 0 1-.4-1.8" style="fill:#2b6c17;fill-opacity:1;fill-rule:nonzero;stroke:none;stroke-width:.1" transform="matrix(.15515 0 0 -.15515 .4 17)"/><path d="m20.7 41.1-.2.6s-.8-.5-1.7-.5c-.7 0-1.5.4-1.8 1.8.3-1.4 1-1.8 1.8-1.8a4 4 0 0 1 1.7.5l.2-.6" style="fill:#b9d9c3;fill-opacity:1;fill-rule:nonzero;stroke:none;stroke-width:.1" transform="matrix(.15515 0 0 -.15515 .4 17)"/><path d="M20.9 41.1h-.2l-.2.6s-.8-.5-1.7-.5c-.7 0-1.5.4-1.8 1.8-.2-.4-.5-.7-.9-.9-.5-.3-1.1-.5-1.8-.5-.6 0-1.3.2-2 .5.8.2 1.6.7 2 1.2.2-.4.5-.6.8-.6.7 0 1.5.7 1.8 1.4.6-.2 1.1-.4 1.7-.4l1.2.3c-.2-.7 0-1.3 1.1-1.3 1.2 0 2.1.8 2.6 1.7.1-.3.3-.6.5-.7a2.7 2.7 0 0 1-.1-1.4l-1 .2c-1.2 0-2-.8-2-1.4m9.6 3c-.1.3-.5.4-.8.4a2 2 0 0 1-1-.3v.1c0 .5-.4.9-.9 1l.3.9a2 2 0 0 1 1.3-.6c1.4 0 2.5 1.7 1.7 3.1h.2c.6 0 1.2.3 1.3 1 .2 1-.7 1.5-1.7 1.5.3.4.6.7.7 1.1a37.4 37.4 0 0 0 4.9-3.4 3 3 0 0 0-.5-1c-.1.5-.5.8-1 .8H35a2 2 0 0 1-1.4-1l-.2-.3c0-.3-.1-.6 0-.8-.3-.6-.6-1-1.1-1.3-.3-.2-.5-.2-.7-.2-.2 0-.3 0-.5.2 0-.4-.3-.9-.5-1.3m6.9 8a39.7 39.7 0 0 0-1.7 3.5l.7.1c1.3 0 2.4-.7 2.3-2.2-.1-.8-.6-1.2-1.3-1.4m-2.2.6-.4.1a30.6 30.6 0 0 0-3.4 1.3l-2 .8c.2.5 0 1-.7 1.3-.6.3-1.4.5-2.3.5l-.4.4-1.2 1-.2.6c1.2.2 2.3.7 2.7 1.7.4-.5 1-.8 1.7-.8.4 0 .8.1 1.2.4l.5-.5c.6-1 .6-2.4 0-3.5.6.3 1.5.5 2.4.6 1.9-3 2-3.9 2-3.9" style="fill:#2b6f1a;fill-opacity:1;fill-rule:nonzero;stroke:none;stroke-width:.1" transform="matrix(.15515 0 0 -.15515 .4 17)"/><path d="M33.3 44.2c.2.3.2.5.2.7v.4l1.2-.1c1.5 0 3 .8 3.9 2a4.8 4.8 0 0 0-4-2l-1.1.1c.1-.3 0-.7-.2-1.1" style="fill:#b9d9c3;fill-opacity:1;fill-rule:nonzero;stroke:none;stroke-width:.1" transform="matrix(.15515 0 0 -.15515 .4 17)"/><path d="m30.5 44 .5 1.3.5-.2c.2 0 .4 0 .7.2.5.3.8.7 1 1.3.2-.3.5-.5.9-.5h.1c.4 0 .6.2.8.4.5.3.8.7 1 1v.4a2.6 2.6 0 0 1 .5 1l2-1.6a4.8 4.8 0 0 0-3.8-2.1l-1.2.1V45c0-.2 0-.4-.2-.7-.2.2-.6.3-1 .3-.8 0-1.6-.3-1.8-.6M39.3 49.7l-2 2.3c.8.2 1.3.6 1.4 1.4.1 1.5-1 2.2-2.3 2.2h-.8l-.6 1.6h.4a8 8 0 0 1 4.7 1.4c.4-.9 1-1.2 1.6-1.2l.1-.7v-.4c1-1 1.4-2 1.4-2.7 0-2.5-4-3.4-4-3.4v-.5m-8.6 6.2c.7 1.1.7 2.4.1 3.5a25.3 25.3 0 0 0 2.3-2.8v-.1c-.8 0-1.7-.3-2.4-.6" style="fill:#1f5e14;fill-opacity:1;fill-rule:nonzero;stroke:none;stroke-width:.1" transform="matrix(.15515 0 0 -.15515 .4 17)"/><path d="M70.6 51.2s-.8-3.4-4.6-6c-3.9-2.7-6.6-5.3-7-4.7-.4.6-.2 3.8-.4 6.6-.4 3.9.3 7.2 2.1 11.2 1.8 4 2.1 6.1 5.1 9.4-.8 1-.6 1.6-.6 1.6S63 66 62.3 66c-.5 0 .7 3.7.7 3.7l-1.8.8s-.4-5.5-1.4-9C58.8 58.2 55 50 54 50c-1-.1-.2 7.3 0 10.3.2 3 1 5 1.5 5.9l1.8 3.3s-1.5-.3-2.4.2a30 30 0 0 1-2.9-12.2c-.2-5.2-.4-6.5-1.2-6.3-.8.2-1.5 2.5-1.8 3.7-.4 1.3-1.8 3.6-2.2 5-.4 1.5-.2 2.4 1.6 5.4 1.8 3 1.7 4 1.7 4s-1.2-.6-2.4-.4c0 0-.7-3.2-1.6-4.2-1-1-.5-4.2-1.6-3a30.4 30.4 0 0 0-5.2 7.4l-2 .7s.3-.5 0-.7c1.8-2.3 3.7-5.3 6.2-8.8a26 26 0 0 0 4.4-11c.6-3.6 1.1-5.7.1-5.5-1 .2-5.1 2.5-6.9 4.2-3 2.9-4 4.4-4.7 6-.6 1.5-2 5-2.7 8.2l-1.3.6s.7-3.2.3-3.2c-.4 0-5 3.8-5 3.8l-1-.3s4.4-3.3 6.4-6.4c2-3 2.2-4 2.2-4s-1.3.3-3.8 1.4c-2.5 1-3.6 1.4-5.4 3L23 59.6h-.7s.6-1.8.5-2c0 0 2.5-2.1 4.3-3 1.8-.7 3.8-1.7 6.5-3.6C38 47.8 41.3 45 44 43.5c2.5-1.7 4-4.4 4.6-6.2.7-2 .3-5 .6-6.9.3-1.8-.3-2.2-1.3-1.3-1 1-3 2.7-4.5 3.8-1.5 1-6.3 5.7-6.3 5.7s-.5-.8-.8-.9c2.6-2.3 5.5-5.4 5-5.5l-9 .4s.7-.5-.1-1.4c4-.2 4.4-.5 6.6-.4 2.3 0 8-1.4 9.4-4.9a45.7 45.7 0 0 0 1.5-18.6s-.3-1.2 5-1c5.3.2 8 .5 7.4 1.9-.5 1.3-1.5 4-1.8 6-.3 2-1.5 8.8-1.2 14 .4 5.2 3 9.9 7.2 11.3 4.2 1.5 7 1.4 12.3 4.4 0 0-.4.3-.7.9a34.9 34.9 0 0 0-11.4-3.4c1 1.7 2 3.6 3.9 4.3l5.3 2-1.2.5c-1.3-.4-3.5-1-3.8-.6-.3.3 1.7 3.7 1.7 3.7l-1.7-.1" style="fill:#654209;fill-opacity:1;fill-rule:nonzero;stroke:none;stroke-width:.1" transform="matrix(.15515 0 0 -.15515 .4 17)"/><path d="M48 26c0 .1 0 .3-.2.4l.2-.4m-6.6 4.4" style="fill:#d1c6b5;fill-opacity:1;fill-rule:nonzero;stroke:none;stroke-width:.1" transform="matrix(.15515 0 0 -.15515 .4 17)"/><path d="M55.6 7.3h-.1c-2.2 2-1.2 5-2.2 7.5-.2-2.1-.2-4.5-1.6-6.2H51.4c-1.3 2.2-.5 5-1 7.5-.2 1.8-.6 3.5-1.2 5.2-.3 2-.7 3.5-1.1 4.6a2.9 2.9 0 0 1-.3.5v.2l-1 1.5.1.1a8.4 8.4 0 0 1-4.1 2.5h-.2a5.4 5.4 0 0 1-1 0 .2.2 0 0 1-.2-.3l-1 .2c.7.3 1.3.8 2.1 1h.2c.8 0 1.6-.7 2.1-1 2-1.5 3.8-3.2 5.2-5.2.1.9-.1 1.8-.3 2.6l-.4 2.6A30.6 30.6 0 0 1 49 32c0 1.7 0 3.8-.5 5.2-.7 1.8-2 4.5-4.6 6.2l-5.3 3.8-2.1 1.6a241.2 241.2 0 0 1-5.6 3.8l3-1.5c3.1-2.2 6-4.6 9.3-6.7h.1l1.7-1h.1c.2 0 .4.2.2.3-2.2 1.7-4.5 3.3-6.4 5.2-2.2 2.3-3.4 5.1-4.9 7.7v.1h-.3l-.2.2-.1-.1c1-2 1.7-4.8 3.4-6.6l1.1-1.5-3.1 2.3c-1.4 1-3.1 1.6-4.7 2.3-2.3.9-4.2 2.2-6 3.7.9-.9 1.8-1.7 2.8-2.4-1.8.8-4.2 2.8-4.2 2.8l-.5 2h.3c.6-.4 1.1-1 1.6-1.6 1-1.1 2.4-2 3.7-3 2.5-1.5 5.3-2.4 8-3.5l-1 1.3h.4s-.2.9-2.2 4l-1.2 1.5c.5-.4 1.2-.7 2-.9 1.3-1.7 2.1-3.8 3.3-5.7 1.6-2.4 3.6-4.1 6-5.8 2.4-1.5 4.7-3 6.8-4.6-.6 1.7-.6 3.5-1.3 5.2l-.5 1.1.1-.9c0 .8-.2 1.6-.4 2.5-.4 3-1.4 6.3-3.2 9.3l.3.3c0-1.3 1-2 2.5-2.4l.9-1.9 2.6-6c.2 1 .3 1.9.2 2.8.4.4.6 1.8.8 5h.6V52a9 9 0 0 1 1-4c.5.7.8 1.5 1 2.4.8 1 2 3 3 5.3.3-.3.7-.5 1.1-.6a11 11 0 0 1-.9-3.9l.3-6.6-.1-3.4-.7-2.8c1.3.8 2.5 1.8 3.5 2.8 1.2 1 3 2.4 5.3 4 2.4 1.6 3.6 3.5 4.2 4.8l.6 1.2h.4c-.7-1.6-1.6-3-2.3-4.7-.9-2-2.7-3.4-4.3-5l-4.4-4.3c-1.5-1.3-3-2.8-3.7-4.6-1-2.1-.8-4.5-1-6.8-.2-2.6-.4-5.3 0-7.9.3-2.1.7-4.3.8-6.5 0-1.2.3-2.9-.5-4l-.2-.1m-1.2 11.5h-.1c0-1.5 0-3 .2-4.5l1.1-4.6h.2c0 1.7-.6 3.2-.9 4.8l-.5 4.3m-4.1 5.8v-1.8l.2-.2v-4.8c.1-2.5.8-4.8.8-7.3l.2-.1c.1 0 .2 0 .3.2 0 3 .8 5.8.7 8.7-.2 2.9-1.3 5.7-1.8 8.5H50.4a148.3 148.3 0 0 0 .2 1v4.7c0 1 .2 1.8.3 2.7l.1.2c.3 5.7-2 11.4-3.5 16.9l-.1-.1c1.1-4.6 2.3-9.2 3-13.8a13.7 13.7 0 0 1-4.5 4c-.2 0-.4-.1-.3-.2l.2-.3.6-.7.3-.4c1-1.7 2.1-3.3 2.6-5.2.3-1.4.4-2.8.5-4.1.2-2.7.1-5.3.5-7.9m3-6.8a12.8 12.8 0 0 1 .1-.4l.2.1a20 20 0 0 0 0 .5l.7 6.2c.2 2 .1 4 .5 6l-.1.2h-.2l.4 3.4c.5 5.2-1 10.3.6 15.4l-.1.2-.3-.2c-1.8-5.4-.4-10.8-1-16.3-.2-3-.9-6.2-1-9.3-.3-2-.3-3.8 0-5.7l.2-.1M50 48.9c-.2 0-.3-.1-.3-.2 0-1 .3-2 .6-2.8l.3-1c.5-3.1.8-6.2.9-9.3.1-2.9-.3-5.8.3-8.6l.1-.1c.1 0 .3 0 .3.2 1 3.4 1.5 6.9 1.5 10.4 0 1.7-.2 3.5-.6 5.2-.3 1-.5 2-.5 3s.4 2 .4 3.1l-.2.1h-.2c-.4-.7-.6-1.4-.8-2v2.8c0 1 .4 2 .5 3.1-.3-1-.7-1.9-.8-2.8a24.9 24.9 0 0 1 0-3.6h.2l-.2-1.5a8.6 8.6 0 0 1-1.4 4h-.1m10-9.4a13 13 0 0 1-4.5-6.4l.1-.1h.2c2.6 4 6.5 7 9.7 10.5v.3c1 .8 2 1.8 3 2.9h-.1a30 30 0 0 0-4.9-4.2c-2.2-1.6-4.5-3.2-6.3-5.3l2.8 2.3m-4.6 5.1a21.5 21.5 0 0 1 .4-6.6l.2.1c.6 2 1 4 1.1 5.9.2 2.1-.2 4.2-.2 6.3l-.1.2c-.1 0-.3 0-.3-.2a33.6 33.6 0 0 1-1.2-5.7h.1M31.1 59a38.1 38.1 0 0 1-3.5 3.3l-1 .8.5.2c1.1-1.1 2.4-2 3.7-3 0-.5.1-1 .3-1.3M49.6 7.3a54.5 54.5 0 0 1 0 0M49.1 30.5" style="fill:#533306;fill-opacity:1;fill-rule:nonzero;stroke:none;stroke-width:.1" transform="matrix(.15515 0 0 -.15515 .4 17)"/><path d="M38.8 30.8" style="fill:#d1c6b5;fill-opacity:1;fill-rule:nonzero;stroke:none;stroke-width:.1" transform="matrix(.15515 0 0 -.15515 .4 17)"/><path d="M48 43.7c-1.1.2-5.2 2.5-7 4.2a18.5 18.5 0 0 0-6 9.3l1.3-3.4c.7-1.5 1.7-3 4.7-6a23.8 23.8 0 0 1 7-4.1M33 53.4l-1.6.6c-2.5 1-3.6 1.4-5.4 3L23 59.6s1.4-1 3.1-2.6c1.8-1.6 2.9-2 5.4-3l1.6-.6" style="fill:#533306;fill-opacity:1;fill-rule:nonzero;stroke:none;stroke-width:.1" transform="matrix(.15515 0 0 -.15515 .4 17)"/><path d="M45.7 28.6a13.4 13.4 0 0 0 0 0" style="fill:#d1c6b5;fill-opacity:1;fill-rule:nonzero;stroke:none;stroke-width:.1" transform="matrix(.15515 0 0 -.15515 .4 17)"/><path d="M45.7 28.7a13.4 13.4 0 0 1-3.7 1.6 5 5 0 0 0 3.7-1.6" style="fill:#533306;fill-opacity:1;fill-rule:nonzero;stroke:none;stroke-width:.1" transform="matrix(.15515 0 0 -.15515 .4 17)"/><path d="M34.8 52.7" style="fill:#235612;fill-opacity:1;fill-rule:nonzero;stroke:none;stroke-width:.1" transform="matrix(.15515 0 0 -.15515 .4 17)"/><path d="M22.5 59.5h.4-.4" style="fill:#306518;fill-opacity:1;fill-rule:nonzero;stroke:none;stroke-width:.1" transform="matrix(.15515 0 0 -.15515 .4 17)"/><path d="M35.8 51.4c-2.7 1-5.5 2-8 3.6-1.3.8-2.6 1.8-3.7 3-.5.5-1 1.1-1.6 1.5h.4s1.4-1 3.1-2.5c1.8-1.6 2.9-2 5.4-3a54.4 54.4 0 0 1 3.4-1.3l1-1.3" style="fill:#442804;fill-opacity:1;fill-rule:nonzero;stroke:none;stroke-width:.1" transform="matrix(.15515 0 0 -.15515 .4 17)"/><path d="M48 43.7c.6 0 .5 1 .2 3l.3-2.1c0-.6-.1-1-.5-1" style="fill:#d1c6b5;fill-opacity:1;fill-rule:nonzero;stroke:none;stroke-width:.1" transform="matrix(.15515 0 0 -.15515 .4 17)"/><path d="m27.1 63.2.5.1-.5-.1" style="fill:#235410;fill-opacity:1;fill-rule:nonzero;stroke:none;stroke-width:.1" transform="matrix(.15515 0 0 -.15515 .4 17)"/><path d="M50 41.2c-2.2 1.7-4.5 3.1-6.8 4.6a19.9 19.9 0 0 0-6.1 5.8c-1.2 1.9-2 4-3.3 5.7l1.2-.1 1.3-3.4c.7-1.5 1.7-3 4.7-6a23.8 23.8 0 0 1 7-4.1c.4 0 .5.3.5.9a14.4 14.4 0 0 1-.4 3l.5-1.2c.7-1.7.7-3.5 1.3-5.2m-19.1 19c-1.3 1-2.6 1.9-3.7 3l.5.1 3.2-2.6v-.5" style="fill:#442804;fill-opacity:1;fill-rule:nonzero;stroke:none;stroke-width:.1" transform="matrix(.15515 0 0 -.15515 .4 17)"/><path d="M39.8 30.7h-1 1" style="fill:#d1c6b5;fill-opacity:1;fill-rule:nonzero;stroke:none;stroke-width:.1" transform="matrix(.15515 0 0 -.15515 .4 17)"/><path d="M38.8 30.8" style="fill:#533306;fill-opacity:1;fill-rule:nonzero;stroke:none;stroke-width:.1" transform="matrix(.15515 0 0 -.15515 .4 17)"/><path d="M38.8 30.8" style="fill:#d1c6b5;fill-opacity:1;fill-rule:nonzero;stroke:none;stroke-width:.1" transform="matrix(.15515 0 0 -.15515 .4 17)"/><path d="M38.8 30.8" style="fill:#aa9980;fill-opacity:1;fill-rule:nonzero;stroke:none;stroke-width:.1" transform="matrix(.15515 0 0 -.15515 .4 17)"/><path d="M50 25.4c-1.4 2-3.2 3.7-5.2 5.1-.5.4-1.3 1-2 1h-.3c-.8 0-1.4-.6-2.1-.9l-1.6.2v.6l.6-.1c1.2 0 2.6 1 2.9 2.4l1-.8c1.6-1 3.4-2.8 4.5-3.8.3-.3.6-.4.9-.4.3 0 .5.3.5 1v.7a13 13 0 0 0-.2 2l.3-1.8c0-1 .2-1.7.4-2.6.2-.8.4-1.7.3-2.6" style="fill:#442804;fill-opacity:1;fill-rule:nonzero;stroke:none;stroke-width:.1" transform="matrix(.15515 0 0 -.15515 .4 17)"/><path d="M70.1 49.8c.4.8.5 1.4.5 1.4s0-.5-.4-1.2l-.1-.2M70.6 51.2h.1" style="fill:#326218;fill-opacity:1;fill-rule:nonzero;stroke:none;stroke-width:.1" transform="matrix(.15515 0 0 -.15515 .4 17)"/><path d="m70.2 50 .4 1.2h.1l-.5-1.2" style="fill:#442804;fill-opacity:1;fill-rule:nonzero;stroke:none;stroke-width:.1" transform="matrix(.15515 0 0 -.15515 .4 17)"/><path d="m54 49.9.6.5c-.3-.3-.5-.5-.7-.5" style="fill:#d1c6b5;fill-opacity:1;fill-rule:nonzero;stroke:none;stroke-width:.1" transform="matrix(.15515 0 0 -.15515 .4 17)"/><path d="M53.5 48a9 9 0 0 0-1 4v4.2l1.1.3-.2-4.3c0-1.4.1-2.3.5-2.3.2 0 .4.2.7.5-.3-.9-.6-1.7-1.1-2.4" style="fill:#442804;fill-opacity:1;fill-rule:nonzero;stroke:none;stroke-width:.1" transform="matrix(.15515 0 0 -.15515 .4 17)"/><path d="M50.8 51c.2 0 .2.1.3.2l-.3-.1" style="fill:#d1c6b5;fill-opacity:1;fill-rule:nonzero;stroke:none;stroke-width:.1" transform="matrix(.15515 0 0 -.15515 .4 17)"/><path d="m50.9 48.4-2.6 6-1 1.9a8 8 0 0 1 1-.2l.6-1.3c.3-1.2 1-3.5 1.8-3.7h.4c0-.8 0-1.8-.2-2.7" style="fill:#442804;fill-opacity:1;fill-rule:nonzero;stroke:none;stroke-width:.1" transform="matrix(.15515 0 0 -.15515 .4 17)"/><path d="m59.2 40.4-.2.1h.2c.3 0 .8.2 1.5.7-.7-.5-1.2-.8-1.5-.8" style="fill:#d1c6b5;fill-opacity:1;fill-rule:nonzero;stroke:none;stroke-width:.1" transform="matrix(.15515 0 0 -.15515 .4 17)"/><path d="m57.2 38.4.7 2.8c.2 1.1.1 2.3.1 3.4l-.3 6.6c0 1.3.4 2.7 1 4 .2-.2.4-.2.7-.2a17.9 17.9 0 0 1-1-5.9l.2-2c.2-2.8 0-6 .4-6.6h.2c.3 0 .8.2 1.5.7-1-1-2.2-2-3.5-2.8" style="fill:#442804;fill-opacity:1;fill-rule:nonzero;stroke:none;stroke-width:.1" transform="matrix(.15515 0 0 -.15515 .4 17)"/><path d="M49.3 20.6v.7-.7" style="fill:#d1c6b5;fill-opacity:1;fill-rule:nonzero;stroke:none;stroke-width:.1" transform="matrix(.15515 0 0 -.15515 .4 17)"/><path d="M71.2 51.2h1.1-1.1" style="fill:#326218;fill-opacity:1;fill-rule:nonzero;stroke:none;stroke-width:.1" transform="matrix(.15515 0 0 -.15515 .4 17)"/><path d="M53.6 6.3c-3.9 0-4 .9-4 1a46.1 46.1 0 0 1-.4 14c.6-1.7 1-3.4 1.3-5.2.4-2.4-.4-5.3.9-7.5h.3c1.4 1.7 1.4 4 1.6 6.1 1-2.4 0-5.4 2.2-7.4l.3.1c.8 1.1.6 2.8.5 4 0 2.2-.5 4.4-.8 6.5-.4 2.6-.2 5.3 0 7.9.2 2.3 0 4.7 1 6.8.7 1.8 2.2 3.3 3.7 4.6l4.4 4.4c1.6 1.5 3.4 3 4.3 5l2.3 4.6h1.1s-1.7-2.8-1.7-3.5c.1-.2.3-.2.5-.2.8 0 2.3.4 3.3.7l1.2-.6s-3.4-1.1-5.3-1.9l-.4-.1c-1.1-.6-2-1.6-2.6-2.7l-1-1.5h.2c3 0 8.2 2 11.3 3.4l.7-1-1.4-.7c-3-1.5-5.1-2-7.4-2.5a40 40 0 0 1-3.5-1C62 38 59.4 33.3 59 28.1v-2.1c0-4.8.9-10.1 1.2-11.9.3-2 1.3-4.7 1.8-6l.1-.4c0-1-2.6-1.3-7.5-1.5h-1m22.5 37.4c-3.4-1.2-6.9-2-10.3-3 3.4.6 7.2 1.2 10.3 2.8.1 0 .1.2 0 .2m-2.7 3.8-2.9-.5s-.1-.1 0-.1c1 0 1.9.1 2.8.4.1 0 .3.2.1.2" style="fill:#442804;fill-opacity:1;fill-rule:nonzero;stroke:none;stroke-width:.1" transform="matrix(.15515 0 0 -.15515 .4 17)"/><path d="M88 77.6c3.3 3.3 1.1 10.2-5.6 10.7.5 1.1-1 1.4-1 1.4s1.3 5.3-4.7 6.1c0 .8-.6 1.8-.6 1.8s.1 5-4 6.9c-4 1.9-7-1.1-7-1.1-1.1 2.4-3.7 1.1-3.7 1.1-.4 2.5-3.3 3.6-4.7 1.3 0 0-1.5 3.6-4.7 1.3-1.8 1.9-5 .9-5.7-.2.3 3.7-8.4 3.6-8-2.5-2.2.9-3.7-.4-4.1-1.8-1.4 2.1-2.8-1.4-2.8-1.4-3.4 3-9.1-3.2-4-7-2.7-.6-1.4-2.8-1.4-2.8C23.7 92 24 90 24 90c-3.4 1-6.8-3.1-1.5-7.3-2.7-.6-2.3-3.4-1-3.7-2.7-.1-1.1-3.2.4-3.5-4.6-2.2-.2-6.8 4-6.4-.4-7 5.3-7.2 5.3-7.2-2.1-5 5.7-5.9 9-3.3 1.1-2.9 4.8 0 4.8 0 0-3.5 8-3.3 11.2-1 1.2-4.6 8.9-2.5 9.4.6 0 0 5-3.4 9.4-1 4 2.5 3 4.4 2.6 5.7 2-.1 4.3 3.2 4 4.8 2.3-3.4 14 3.8 6.5 9.9" style="fill:#b8cd0e;fill-opacity:1;fill-rule:nonzero;stroke:none;stroke-width:.1" transform="matrix(.15515 0 0 -.15515 .4 17)"/><path d="M62 57.5c-.5 0-1 .1-1.4.3-.8.4-1 1.3-1 2-.5-.4-1-.8-1.7-.8a2 2 0 0 0-.5.1 2 2 0 0 0-1.6 1.5 4 4 0 0 0-1.8-1.4l-.8-.1c-1.3 0-2.3 1-2.3 2-.6-.6-1.5-1.2-2.4-1.2-.5 0-1 .2-1.3.6-.3.2-.4.5-.5.8a3.8 3.8 0 0 0-1 0c-1.4 0-2.4 1.3-2.1 2.5l-.8-.2c-.4 0-.7.2-1 .5a5.6 5.6 0 0 0-3.4-4h-.8c-.9 0-1.9.3-2.1 1.1-.2.8 0 1.6.5 2.3-.3-.2-.7-.3-1-.3-.3 0-.5.1-.8.3l-.6.6a3 3 0 0 0-1.5-.5c-1.3 0-1.2 1.4-.8 2.4-.5-.3-1.1-.7-1.7-.7-.2 0-.4 0-.6.2-.8.3-1 1-1.1 1.8 0 .6 0 1.3.3 2-.8.4-1 1.3-.9 2.1a3 3 0 0 0-1.9-.8l-1 .3-.8.5-1-.1c-.3 0-.6 0-1 .2-.9.3-1.5 1.3-1.6 2.3-.5-1.3.4-2.8 2-3.7-1.3.7-2.1 1.9-2.1 3 0 .9.5 1.7 2 2.4-1 .2-2 1.4-2 2.4 0 .6.4 1 1.4 1-.5.2-1 .9-1 1.6 0 .9.6 1.9 2.1 2.2-2 1.6-2.7 3.1-2.7 4.4 0 1.8 1.5 3 3.2 3h1c0 .4 0 1.4 1.3 1.4l.8-.1s-.3.5-.3 1.2c0 .6.4 1.3 1.7 1.5-1.4 1.2-2 2.5-2 3.7 0 2.2 2 4.2 4 4.2a3 3 0 0 0 2-.8s.8 2 1.9 2c.3 0 .6-.1.9-.6.3 1 1.2 2 2.7 2 .4 0 .9 0 1.4-.2v.4c0 3.2 2.5 4.6 4.8 4.6 1.7 0 3.2-.8 3.2-2.3v-.2c.4.6 1.7 1.2 3 1.2 1 0 2-.3 2.7-1 .8.5 1.5.7 2 .7 1.9 0 2.7-2 2.7-2 .6.9 1.3 1.3 2 1.3 1.3 0 2.5-1 2.7-2.6 0 0 .7.3 1.5.3.7 0 1.7-.3 2.3-1.4a6.3 6.3 0 0 0 2.8 1.5l.2-.1a1 1 0 0 0 0-1l1 .2c.8 0 1.6-.3 2.2-1 1.1-1 1-2.5.1-3.6h.6c1.7 0 1.4-2.5.4-3.7-.9-1-2-1.7-3.1-2.4.5 0 1-.2 1.3-.5.3-.4.3-.9.2-1.3l1.1.2c.5 0 1-.2.9-.7.5.4 1.2.8 1.9.8l.5-.1c1.1-.3 1.3-1.6.9-2.4a10 10 0 0 0-2.4-2.7c.5-.2.9-.6.9-1.2.6.7 1.4 1.1 2.3 1.1h.5c1.4-.3 1.6-1.8 1.4-2.8-.1-.8-.6-1.7-1.2-2.5l1.1.3.6-.1c.7-.3 1-.9 1-1.5.8.7 2 1.3 2.9 1.3.6 0 1-.3 1.2-1 .2-1-.2-1.9-.8-2.7.7-.2 1.5-.4 2-.9.6-.8.5-2-.1-2.8-.6-.6-1.3-.9-2-.9-.4 0-.7 0-1 .2.6-1.3-.3-3-1.6-3l-.9.3a5.3 5.3 0 0 0-2.8-3.3 8.1 8.1 0 0 0-3.5-.9c.3-.8.3-1.6-.5-2.3-.4-.4-.8-.6-1.2-.6-.7 0-1.3.4-1.8.9.3-1.7.5-3.4-1.2-4.4-.5-.3-1-.4-1.3-.4-1 0-1.9.8-2.4 1.7a4.8 4.8 0 0 0-1.5-3c-.5-.4-1.2-.6-2-.6m-4.6 6.8c.4-1 1.3-1.6 2.5-2h.9c1.5 0 2.5 1 3 2.3.2-.5.7-.7 1.3-.7 1 0 2.2.5 3 1.2 1 .9 1.8 2.3 1.3 3.5l-.1.3h.4l.5.3c.4-.7 1.4-.9 2.5-.9 1 0 2.2.2 2.9.5 1 .5 2 1.5 1.7 2.6-.2.9-1 1.2-2 1.2.7.4 1.2.8 1.4 1.4.4 1-.2 1.9-.9 2.5a3.8 3.8 0 0 1-3 .8c-1 0-1.7-.9-2-1.7-.5 1.1-1.4 1.8-2.5 1.8a3 3 0 0 1-.8-.1c1 1 1.5 2.7.5 3.8-.6.6-1.3.8-2 .8-1.4 0-2.8-1-3-2.3h-.3c-1.5 0-2.5-1-3-2.3-.6.7-1.4 1.4-2.3 1.4-.3 0-.5 0-.8-.2l-.4-.2a1 1 0 0 1-1 .7c-1 0-2.3-1.3-2.6-2.4l-.3.1c-.4 0-.8-.4-1-.8a3 3 0 0 1-2 .7c-2 0-3.9-2.4-2.7-3.8a6 6 0 0 1-1.5.2c-.5 0-1-.1-1.4-.3-1-.6-1.3-2-.6-2.8.4-.4 1-.5 1.5-.6a1.6 1.6 0 0 1 .3 0l.1-.2.3-.6c.4-.3 1-.5 1.5-.5h.2c-.6-.8-.3-2 .3-2.9.4-.6 1.1-1.2 2-1.2 1.3.2 2 1 2.6 2 .3-1 1-1.8 2-1.8.3 0 .7.2 1.1.5.3-.5.7-.7 1.2-.7.4 0 .8.2 1.2.4M37 66c0-.2.2-.4.5-.6l.6-.1a4 4 0 0 1-.4-.9 1 1 0 0 1 1.2-1c1.3.3 1.9 1.4 2.3 2.4v.3c1 0 2.5.4 2.7 1.3.1 1-.5 1.2-1.2 1.2H42c.2.6 0 1.2-1 1.4H41a2 2 0 0 1-1.2-.4c0 .4-.3.8-.9.8h-.2c-.3 0-.5-.2-.7-.4-.1.3-.3.5-.7.5h-.1c-.6-.1-1-.4-1-.8l-1 .2c-.3 0-.8-.2-1.1-.5a1 1 0 0 1-.3-.4c-.6 0-1.2-.4-1.4-1-.2-.8.7-1 1.6-1h.6c-.4-.4-.7-.9-.3-1.2.3-.3.7-.4 1.1-.4.6 0 1.3.3 1.8.6m-11 10.6a2 2 0 0 1-.3-1.5c-1.1-.2-2-1-1.7-2.2.2-.7.9-1.1 1.6-1.1h.5c.7.2 1.4.7 2 1.2v-.1c.3-.3.6-.4 1-.4.7 0 1.5.5 2 1 .4-1.1 1.3-1.6 2.2-1.6.7 0 1.5.3 2 1 .2-.6.7-1 1.4-1 1 0 2 .7 2.3 1.7.5 1.3.4 3.2-.3 4.7 1 .1 1.5.9 1.4 1.7l1-.1c.7 0 1.4.3 1.8 1l.1-.1.8-.3c1 0 1.8 1.3 2.2 2.2.2-.3.6-.5 1-.5.9 0 1.9 1.1 2.2 2 .4 1.6-.4 3.2-1.6 4.3h.6c.4 0 .9 0 1.3.3.8.5.5 1.3 0 2l.8-.1c.4 0 .8 0 1.2.2 0-.4.2-.7.4-1 .3-.6 1.2-1 1.8-1l.5.1c.4-.7 1.2-1 2-1 1.1 0 2.3.6 2.7 1.5.2-.2.5-.3 1-.3h.5c1.2.4 1.7 1.4 1.6 2.4h.3c2 0 3.7 1.8 2.6 3.5h.5c1.8 0 3.7 1.3 4 2.9.1 1-.5 2-1.6 2.2h-.4c-1 0-1.9-.7-2.4-1.4-.2.7-.8 1.2-1.5 1.2-.3 0-.5-.1-.8-.3.4 1.2.3 2.5-1.2 2.9H61c-1.2 0-1.6-1.2-1.6-2.2h-.4c-.6 0-1.1-.1-1.6-.5.1 1.3-1.2 2-2.6 2h-.6c.4.8.7 1.6.6 2.4-.1.9-.8 1.7-1.8 1.7h-.3c-.8-.2-1.3-.8-1.4-1.4-.2.2-.5.3-.8.3-1 0-2.1-1-2.5-2-.5.6-1 1-1.7 1-.5 0-1-.2-1.5-.6-.4-.4-.6-.7-.8-1.2h-.2c-.7 0-1.5-.6-2.2-1.2-.2.7-.8 1-1.3 1-.4 0-.8-.2-1-.5a1.8 1.8 0 0 1-2.2 1c-1.6-.6-1.2-2.2-.7-3.3h-.2c-1 0-1.7-.6-2.3-1.3-.2.7-.8 1-1.5 1-.4 0-.9 0-1.3-.3 0 .8-.4 2-1.5 2.1h-.1a1 1 0 0 1-.8.5c-.5 0-1-.4-1.3-1-.2-.5-.2-1.2.3-1.7.4-.4.5-.3.3-.7l.1-.6c-.7 0-1-.5-.4-1.2.4-.4 1-.5 1.7-.5l1.7.1c-1.1-.8-1.7-1.9-.5-2.6-.4-.2-.7-.4-.8-.9a2 2 0 0 1-1.2.4c-.5 0-1-.2-1.4-.7-.7-1-.3-2.3.6-3.2-.7 0-1-.6-1-1.2-1 .6-2 1.4-3 1.4-.6 0-1.1-.3-1.6-1.2-1-1.7 1.3-3.4 3.2-3.4 0-.8.1-1.4.7-1.8-1.2-.3-2.6-1.3-2-2.4-1 0-1.6-.8-1.4-1.8.1-1.2 1-1.6 2.2-1.6l1 .1M54.6 87h-.4c-1.2-.5-1.8-1.7-1.7-2.8-.5-.2-.8-.6-1-1-.9-.1-1.6-1-1.5-1.7-.8 0-1.6-.2-2.4-.6-.6-.3-1.3-1.1-1-1.8a1 1 0 0 1 1-.5c.7 0 1.6.4 2.2 1a1 1 0 0 1 1.1-1l.9.3c.8.5 1.6 1.2 2 2a1 1 0 0 1 .7-.2c.7 0 1.4.5 2 1 .1-.8.6-1.6 1.6-1.6s1.4.7 1.6 1.4h.4c1 0 1.8 1 1.8 2h.1c.8 0 1.7 0 2.3.5l.6.7a6.2 6.2 0 0 1 2.7-.8c.3 0 .7 0 1 .2.7.4 1 1 1.6 1.4.6.4 2.1 1.8.9 2.4l-.7.1-1-.2c.1.5 0 1-.8 1h-.3l-1-.3c.2.4 0 .5-.2.5-.2.2-.4.3-.8.3l-.6-.1c-1-.2-1.5-.9-1.8-1.6h-.4c-.5 0-1-.2-1.4-.5-.2.3-.6.5-1.1.5-1.2 0-2.7-.8-2.8-2-.4 0-.6 0-.9-.2-.2.4-.7.6-1 .6l-.8-.2c0 .6-.2 1.2-.9 1.2m17.5-2.7c-.5 0-1-.3-1.3-.5-.4-.4-.8-1-.7-1.4 0-.5.4-.6.7-.6.4 0 .7.1 1 .3.4.2.7.5.8.7.4.5.5 1.1-.2 1.4l-.3.1m2.7 0h-.2L74 84l-.2-.5c0-.1 0-.3.2-.3h.1l.6.2.2.3v.1l.1.3c0 .1-.1.2-.3.2m-33 20c-.2-.1-.5-.4-.3-.5h.1c.2 0 .4.2.3.3v.1m.5 4.3h-.2c-.8 0-1.4-.7-1.8-1.3l-.2-.3-.2-.3c-.4-.6-.3-1.3.3-1.7l.5-.1c.6 0 1.2.4 1.5.7.5.4 1 1.1 1.1 1.8 0 .6-.3 1.2-1 1.2M22 70.1" style="fill:#80b40b;fill-opacity:1;fill-rule:nonzero;stroke:none;stroke-width:.1" transform="matrix(.15515 0 0 -.15515 .4 17)"/><path d="M25.2 69.1a6.3 6.3 0 0 0 .3 0h-.3" style="fill:#2f731a;fill-opacity:1;fill-rule:nonzero;stroke:none;stroke-width:.1" transform="matrix(.15515 0 0 -.15515 .4 17)"/><path d="M25.6 69.1" style="fill:#226011;fill-opacity:1;fill-rule:nonzero;stroke:none;stroke-width:.1" transform="matrix(.15515 0 0 -.15515 .4 17)"/><path d="M22 70" style="fill:#2f731a;fill-opacity:1;fill-rule:nonzero;stroke:none;stroke-width:.1" transform="matrix(.15515 0 0 -.15515 .4 17)"/><path d="M72.1 104.5" style="fill:#cbe2c1;fill-opacity:1;fill-rule:nonzero;stroke:none;stroke-width:.1" transform="matrix(.15515 0 0 -.15515 .4 17)"/><path d="M60 55a5.9 5.9 0 0 0-1.4.1 3.4 3.4 0 0 0-2.5 2.6 8 8 0 0 0-2.5-1.2 12.5 12.5 0 0 0-6.2-.2c-1.5.3-2.5 1.1-2.5 2.4l-.3-.3a5.5 5.5 0 0 0-3-1c-.6 0-1.1.3-1.4 1.2a8 8 0 0 0-5.2-1.4l-1.2.1c-1.7.4-3 1.4-3 3 0 .5 0 1 .3 1.6 0 0-1.6 0-3 1.2-.6.5-1.2 1-1.6 1.9a7.5 7.5 0 0 0-.7 4.1 5.4 5.4 0 0 0-.2 0 2.6 2.6 0 0 0-.4 0c-1.1 0-2.3.4-3.2 1-1.6 1-2.5 2.4-2 3.7.1-1 .7-2 1.7-2.3l1-.2 1 .1c.1-.2.4-.4.7-.5l1-.3a3 3 0 0 1 2 .8c-.3-.8 0-1.7.8-2.2-.3-.6-.4-1.3-.3-2 0-.6.3-1.4 1.1-1.7l.6-.2c.6 0 1.2.4 1.7.7-.4-1-.5-2.4.8-2.4h.3c.4 0 .9.2 1.2.5l.6-.6c.3-.2.5-.3.8-.3.3 0 .7.1 1 .3-.5-.7-.7-1.5-.5-2.3.2-.8 1.2-1.2 2.1-1.2l.8.1c1.7.6 3 2.3 3.4 4 .3-.3.6-.5 1-.5.3 0 .5 0 .8.2-.3-1.2.7-2.4 2.1-2.6a3 3 0 0 1 1 0c0-.2.2-.5.5-.7.4-.4.8-.6 1.3-.6.9 0 1.8.6 2.4 1.2 0-1 1-2 2.3-2l.8.1a4 4 0 0 1 1.8 1.4 2 2 0 0 1 1.6-1.5h.5c.6 0 1.2.3 1.6.7 0-.7.3-1.6 1-2l1.5-.3c.7 0 1.4.2 1.9.7.8.7 1.3 1.8 1.5 3 .5-1 1.3-1.8 2.4-1.8.4 0 .8.1 1.3.4 1.7 1 1.5 2.7 1.2 4.4.5-.5 1.1-.9 1.8-.9.4 0 .8.2 1.2.6.8.7.8 1.5.5 2.3h.3c1 0 2.4.4 3.2.9 1.4.6 2.4 2 2.8 3.3.3-.2.6-.2.9-.2 1.3 0 2.2 1.6 1.5 3a2.5 2.5 0 0 1 3 .7c.7.7.8 2 .1 2.7-.4.5-1.2.7-1.9.9.6.8 1 1.8.8 2.6-.1.8-.6 1.1-1.2 1.1-1 0-2.1-.6-3-1.3.2.6-.2 1.2-.9 1.5l-.6.1c-.3 0-.7-.1-1-.3.5.8 1 1.7 1.1 2.5.2 1 0 2.5-1.4 2.8H77c-1 0-1.7-.4-2.3-1 0 .5-.4 1-.9 1.1 1 .9 2 2 2.4 2.7.4.8.2 2-1 2.4a2 2 0 0 1-.4 0c-.7 0-1.4-.3-2-.7.1.5-.3.7-.8.7l-1.1-.2c.1.4.1.9-.2 1.3a2 2 0 0 1-1.3.5c1.2.7 2.2 1.4 3 2.4 1 1.2 1.4 3.7-.3 3.7h-.6c.9 1 1 2.5 0 3.6a3.1 3.1 0 0 1-3.3.8v1l-.2.1a5.9 5.9 0 0 0 3 0l1.1-.4c3.8-1.8 4-6.1 4-6.8v-.1s.6-1 .6-1.8c4.2-.6 4.8-3.3 4.8-4.9v-1.2s1-.2 1-1l-.1-.4c4.6-.3 7.1-3.7 7.1-6.9 0-1.4-.5-2.8-1.5-3.8 1.8-1.5 2.5-3 2.5-4.4 0-3.5-4.3-6.4-7-6.4-.9 0-1.6.3-2 .9v-.4c0-1.6-2-4.4-3.8-4.4h-.2c.2-.5.4-1 .4-1.7 0-1.1-.6-2.5-3-4a7 7 0 0 0-3.5-.8c-3.2 0-5.9 1.8-5.9 1.8-.3-1.8-3-3.3-5.4-3.3" style="fill:#669f08;fill-opacity:1;fill-rule:nonzero;stroke:none;stroke-width:.1" transform="matrix(.15515 0 0 -.15515 .4 17)"/><path d="M42.3 34.2s2.7 1.3 2 3.7c-.8 2.4-4.2 1.9-5 1.6 1 2.2-1 3.1-2 2.7 0 .7-.4.7-.7.6.5 1.4-1.7 3-3.2 1.3-.7.7-2.6.3-3-.2 0 .8-1.1.7-1.7.3.1 2-5.3 1.7-4.8-2-1.6.8-3-.4-3-1 0 0-2.6.2-2.8-2.5-.1-2.7 3.1-3 3.1-3s-2.4-1.5 0-3c-.9-.8 0-2.9 2.8-2.4-.2-1 1.6-1.3 2.2-.2.4-1.2 2.8-1.7 4.2-.8.4-.9 1.9-.6 2.6.4 1-1.2 6-2.3 5.8 1.7 1.4-.5 3.6.9 3.5 2.8" style="fill:#afc90c;fill-opacity:1;fill-rule:nonzero;stroke:none;stroke-width:.1" transform="matrix(.15515 0 0 -.15515 .4 17)"/><path d="M31.8 30a1 1 0 0 0-.3 0 1 1 0 0 0-.6.5 5 5 0 0 0-2.1-.5c-1 0-1.7.3-2 1-.4-.2-1-.3-1.4-.3l-1.2.3c-.4.1-.8.5-1 1-.3 0-.7 0-1 .3-.5.4-.7 1-.4 1.4-.8 0-1.4.6-1.4 1.3l.8.7s-3 .3-3 2.8v.2c0 2.2 1.9 2.4 2.5 2.4h.2c0 .6.8 1.4 2 1.4.3 0 .6 0 1-.2v.4c0 2 1.6 2.8 3 2.8 1 0 1.8-.4 1.8-1.2l1 .2c.4 0 .8-.2.8-.6.2.3 1 .6 1.8.6.4 0 .9-.1 1.1-.4.5.5 1 .7 1.5.7a2 2 0 0 1-1.4-.6h.6c.4 0 .7 0 1-.3.8-.7.8-1.8.4-2.7h.1c.7 0 1.3-.2 1.7-.6.5-.6.7-1.5.6-2.2h.9c.6 0 1.2-.1 1.7-.5 1.5-1-.2-2.4-1.4-2.8.1-.5 0-1-.3-1.5-.4-.5-1-.8-1.5-.9L37 32a2.8 2.8 0 0 0-2.4-1.3c-.4 0-.8 0-1.2.4 0-.2-.2-.3-.3-.4a2 2 0 0 0-1.3-.6m-6.7 3c0-1 .8-1.2 1.6-1.2.5 0 1 0 1.4.2 2.2.7 3.1 3.2 2.6 5.2 1.1.1 2.3 1 1.7 2h.1c1.2 0 2.4 1 2.3 2-.1 1.1-1 1.5-2 1.5-.8 0-1.5-.2-2.2-.4-.2.6-.8 1-1.6 1h-.7c0 .4-.2.8-.7 1h-.3a3 3 0 0 1-1.6-.7 3 3 0 0 1-1.2-1.7v-.5c-.4-.2-.8-.6-1-1l-1.2.1c-1.6 0-3.2-.8-2.3-2.5.4-.8 1.3-1.1 2.4-1.1h.1c0-.6.4-1.2 1-1.4-.8-.4-1.2-1-.8-1.9.3-.6.8-.8 1.3-.8l1 .2" style="fill:#8eaf05;fill-opacity:1;fill-rule:nonzero;stroke:none;stroke-width:.1" transform="matrix(.15515 0 0 -.15515 .4 17)"/><path d="M21.3 32.6c-1.4 1-1.3 1.8-.9 2.4l-.2-.8c0-.5.2-1 1-1.6m15.4 10.2v.4c0 .6-.3 1.1-.8 1.4.6-.4 1-1 .8-1.8" style="fill:#afc90c;fill-opacity:1;fill-rule:nonzero;stroke:none;stroke-width:.1" transform="matrix(.15515 0 0 -.15515 .4 17)"/><path d="M36.1 28.6c-1.2 0-2.6.5-3.1 1.1a2 2 0 0 0-1.7-1c-.4 0-.7.2-.9.6a3 3 0 0 0-1.7-.5c-1.1 0-2.2.6-2.5 1.3-.3-.5-.8-.7-1.2-.7-.5 0-1 .3-1 .7v.2h-.7c-1.6 0-2.4.8-2.4 1.6 0 .3.1.6.4.7-.9.6-1.1 1.1-1.1 1.6 0 .3 0 .6.2.8a1.3 1.3 0 0 1 1.4-1.3c-.3-.5-.1-1 .4-1.4.3-.2.7-.3 1-.3.2-.5.6-.9 1-1l1.2-.3c.5 0 1 .1 1.4.3.3-.7 1-1 2-1a5 5 0 0 1 2.1.5l.6-.4h.3a2 2 0 0 1 1.6.9c.4-.3.8-.4 1.2-.4a2.8 2.8 0 0 1 2.7 2.1c.6 0 1.1.4 1.5.9.3.4.4 1 .3 1.5 1.2.4 3 1.8 1.4 2.8-.5.4-1.1.6-1.7.6l-1-.1c.2.7 0 1.6-.5 2.2-.4.4-1 .6-1.7.6h-.1c.4 1 .4 2-.4 2.7a1.7 1.7 0 0 1-1.6.3c.4.4 1 .6 1.4.6.3 0 .6 0 .9-.2.5-.3.9-.8.9-1.4l-.1-.4h.2c.3 0 .5 0 .5-.6h.6c.8 0 1.8-.5 1.7-1.6 0-.4 0-.7-.2-1.1.2.1 1 .3 1.7.3 1.2 0 2.7-.4 3.1-1.9l.2-.8c0-1.9-2.1-2.9-2.1-2.9v-.1c0-1.7-1.6-2.8-3-2.8a2 2 0 0 0-.5 0 5.6 5.6 0 0 0 0-.5c-.2-1.7-1.4-2.2-2.7-2.2" style="fill:#618a00;fill-opacity:1;fill-rule:nonzero;stroke:none;stroke-width:.1" transform="matrix(.15515 0 0 -.15515 .4 17)"/><path d="M22 37.7c-.4 0-.7.2-1 .5-.2.4-.2.8 0 1.1l.3.2c.2.3.6.5 1 .6h.2c.3 0 .7 0 1-.3.7-.8-.3-2-1.4-2M24.2 37.4H24l-.2.1v.5c0 .2.4.5.7.5l.3-.1c.4-.3-.2-.8-.5-1h-.1M24.2 35.6l-.4.1c0 .2 0 .4.2.5.1.2.3.3.5.3s.3-.1.3-.3c0-.3-.2-.6-.5-.6h-.1" style="fill:#f1f60c;fill-opacity:1;fill-rule:nonzero;stroke:none;stroke-width:.1" transform="matrix(.15515 0 0 -.15515 .4 17)"/><path d="M35.7 33.3c-.2.5-.8.6-1.3.4-.4-.1-.7-.4-.9-.7a1 1 0 0 1-.3-1.1c.1-.4.5-.6.8-.6.6 0 1 .3 1.3.7.4.3.5.8.4 1.3M32.2 32c-.2 0-.3-.3-.1-.3.1 0 .3.3 0 .3M32.6 37.1h-.1a.9.9 0 0 1-.7-.7c0-.3 0-.7.4-.8.6 0 1.1.6 1.1 1.1 0 .4-.4.5-.7.4M29.2 31.6c-.2 0-.5 0-.7-.2-.2-.2-.3-.5-.3-.8 0 0 0-.2.2-.2.3-.1.5 0 .8.1l.4.3c.2.4 0 .7-.4.8M41.3 34.7c-.2.2-.5.1-.6 0a.7.7 0 0 1-.3-.2.8.8 0 0 1-.3-.5l.1-.3c-.2 0-.5-.3-.2-.3.2 0 .4.2.3.3l.2-.1c.2 0 .5 0 .6.2.3.3.4.7.2 1" style="fill:#d2d600;fill-opacity:1;fill-rule:nonzero;stroke:none;stroke-width:.1" transform="matrix(.15515 0 0 -.15515 .4 17)"/><path d="M13.9 48.7c-.3 0-.5 0-.7.2l-.2.7a2 2 0 0 0 1.8 1.4c.3 0 .5-.1.7-.3V50a3.1 3.1 0 0 0 0-.2v-.2l-.2-.3a2 2 0 0 0-1.4-.7M12.9 46.8c-.3 0-.4.1-.4.3 0 .3.2.5.4.6l.5.2.2-.1v-.3l-.2-.5a.8.8 0 0 0-.5-.2" style="fill:#377c02;fill-opacity:1;fill-rule:nonzero;stroke:none;stroke-width:.1" transform="matrix(.15515 0 0 -.15515 .4 17)"/><path d="m10.5 54.7-1-.3c-.3-.3-.6-.6-.6-1v-.7c.4-.5 1.2-.1 1.6.2.3.3.6.7.6 1.2 0 .3-.2.5-.6.6M8.4 52h-.1c-.2.2-.5 0-.6 0l-.2-.4v-.3l.6.1c.2.1.4.4.3.5" style="fill:#d2d600;fill-opacity:1;fill-rule:nonzero;stroke:none;stroke-width:.1" transform="matrix(.15515 0 0 -.15515 .4 17)"/><path d="M3.5 61.4c-.4 0-.6.3-.6.6-.2.3-.2.7 0 1 .2.4.7.8 1.2.8h.3c.7-.2.8-.8.5-1.3a1.7 1.7 0 0 0-1.4-1M5.3 59.6c-.2 0-.4 0-.5.2v.5c.1.3.6.8 1 .8.2 0 .3 0 .5-.2.5-.4 0-1-.5-1.2l-.3-.1h-.2" style="fill:#79bb3c;fill-opacity:1;fill-rule:nonzero;stroke:none;stroke-width:.1" transform="matrix(.15515 0 0 -.15515 .4 17)"/><path d="M4 58h-.2l-.1.2v.2l.6.3c.1 0 .2 0 .2-.2 0-.3-.3-.6-.5-.6" style="fill:#6cab2a;fill-opacity:1;fill-rule:nonzero;stroke:none;stroke-width:.1" transform="matrix(.15515 0 0 -.15515 .4 17)"/><path d="M10.8 66.8a1 1 0 0 0-.6.2 1 1 0 0 0-.3.3v.1c-.3.5 0 1 .2 1.3l.5.6c.3.2.8.5 1.3.5.2 0 .4 0 .6-.3.5-.6.2-1.4-.3-2-.3-.3-.9-.7-1.4-.7" style="fill:#88b51e;fill-opacity:1;fill-rule:nonzero;stroke:none;stroke-width:.1" transform="matrix(.15515 0 0 -.15515 .4 17)"/><path d="M13.8 67.9c-.4 0-.4.4-.2.6 0 .2.2.3.4.3h.4l.1-.1v-.5a.8.8 0 0 0-.7-.3M16.9 62l-.1.1h-.1c-.8 0-.7.8-.5 1.3l.7.8.6.2c.2 0 .4-.1.5-.4.2-.4.2-.8 0-1.1-.2-.4-.6-.8-1.1-.8" style="fill:#6cab2a;fill-opacity:1;fill-rule:nonzero;stroke:none;stroke-width:.1" transform="matrix(.15515 0 0 -.15515 .4 17)"/><path d="M29.9 48.7h-.3c-.1 0-.3.1-.3.3-.2.3-.1.7 0 .9.2.4.6.8 1.1.8h.2c.3 0 .6-.1.7-.4.2-.5-.1-1-.5-1.2-.2-.2-.6-.4-1-.4M28.5 46.8c-.4 0-.4.3-.3.5.1.2.4.4.7.4.3 0 .4-.3.3-.5a.8.8 0 0 0-.7-.4" style="fill:#699e19;fill-opacity:1;fill-rule:nonzero;stroke:none;stroke-width:.1" transform="matrix(.15515 0 0 -.15515 .4 17)"/><path d="M33.3 46.6c-.1.2 0 .5 0 .8l.2.3c0-.4 0-.8-.2-1.1m1.4.7c-.4 0-.8.1-1.2.4.3.5.8.9 1.4 1h.1c.5 0 .9-.3 1-.8-.4-.4-.9-.6-1.3-.6" style="fill:#609314;fill-opacity:1;fill-rule:nonzero;stroke:none;stroke-width:.1" transform="matrix(.15515 0 0 -.15515 .4 17)"/><path d="M34 46c-.3 0-.6.3-.7.5l.2 1.2c.4-.3.8-.4 1.2-.4.4 0 .9.2 1.3.6v-.3c-.2-.4-.5-.8-1-1.1a1.7 1.7 0 0 0-1-.4" style="fill:#598911;fill-opacity:1;fill-rule:nonzero;stroke:none;stroke-width:.1" transform="matrix(.15515 0 0 -.15515 .4 17)"/><path d="m20.4 52.6-.3.1c-.2.2-.2.4 0 .5.1.3.4.5.6.6h.2c.2 0 .3 0 .3-.3a.9.9 0 0 0-.8-.9" style="fill:#377c02;fill-opacity:1;fill-rule:nonzero;stroke:none;stroke-width:.1" transform="matrix(.15515 0 0 -.15515 .4 17)"/><path d="M24.2 85.2c-.5 0-1 .2-1.2.7-.2.5-.2 1.2.2 1.6.2.3.6.5 1 .5.3 0 .5 0 .7-.3.2 0 .4-.1.5-.3.2-.3.4-.6.3-1 0-.5-.5-1-1-1.2a2 2 0 0 0-.5 0M27.5 83c-.3 0-.5.2-.5.4-.4.4.1 1 .4 1l.5.1.3-.1c.1-.1.2-.3.1-.4 0-.4-.3-1-.8-1" style="fill:#bfd51c;fill-opacity:1;fill-rule:nonzero;stroke:none;stroke-width:.1" transform="matrix(.15515 0 0 -.15515 .4 17)"/><path d="M25.7 79.3h-.1c-.3 0-.4.2-.5.4v.1l-.1.5c0 .3.2.5.3.7.3.4.7.6 1.2.7.4 0 .6-.2.8-.4.3-.5-.2-1.1-.5-1.5-.2-.2-.7-.5-1.1-.5" style="fill:#cadf21;fill-opacity:1;fill-rule:nonzero;stroke:none;stroke-width:.1" transform="matrix(.15515 0 0 -.15515 .4 17)"/><path d="M24.8 79c-.2 0-.5 0-.6-.2-.2-.2-.3-.3-.2-.5v-.1c0-.2 0-.2.2-.3l.6.3v.3l.2.1c0 .2 0 .3-.2.4M22.8 75c-.4.3-1 .1-1.2-.2-.3-.2-.4-.5-.5-.8-.1-.6 0-1.3.7-1.3.4 0 .7.3 1 .6.4.5.5 1.3 0 1.7M25.8 74.4c-.3 0-.8-.6-.4-.9.3 0 .5 0 .6.2.2.1.3.3.3.5l-.5.2" style="fill:#569132;fill-opacity:1;fill-rule:nonzero;stroke:none;stroke-width:.1" transform="matrix(.15515 0 0 -.15515 .4 17)"/><path d="m42 104.1-.2.1c-.2 0-.5-.3-.3-.4.2-.1.5.2.4.3" style="fill:#ddda00;fill-opacity:1;fill-rule:nonzero;stroke:none;stroke-width:.1" transform="matrix(.15515 0 0 -.15515 .4 17)"/><path d="m29.1 98.3-.2.1c-.2 0-.4.2-.4.4 0 .3 0 .5.2.7.2.3.5.5 1 .6.2 0 .3-.2.4-.4a1 1 0 0 0-.4-1.1l-.6-.3M29.1 96c-.1 0-.3 0-.4.2-.1.3.3.7.5.8h.4l.3-.2-.1-.4a.9.9 0 0 0-.7-.4M32.6 96.4c-.3 0-.5 0-.4.3-.1.4.2.7.5.8l.3.1c.1 0 .3 0 .3-.2.1-.4 0-.8-.5-1h-.2M36 95.4c-.5 0-.9.2-1 .7-.2.7.3 1.6 1 2.1.3.4.7.7 1.2.8h.2c.5 0 1-.3 1-.8.1-.4 0-.9-.2-1.2-.4-.7-1-1.4-1.9-1.6H36M37.4 100c-.3 0-.5.1-.5.4 0 .3.2.6.4.8l.7.3.3-.1c.3-.2.2-.5 0-.7l-.1-.3-.7-.4h-.1" style="fill:#cadf21;fill-opacity:1;fill-rule:nonzero;stroke:none;stroke-width:.1" transform="matrix(.15515 0 0 -.15515 .4 17)"/><path d="M40.8 104.8a1 1 0 0 0-.5 0c-.6.5-.7 1.2-.3 1.8l.2.3.2.3c.4.6 1 1.2 1.8 1.3h.2c.7 0 1-.6 1-1.2 0-.7-.6-1.4-1.1-1.8-.3-.3-1-.7-1.5-.7" style="fill:#8dc119;fill-opacity:1;fill-rule:nonzero;stroke:none;stroke-width:.1" transform="matrix(.15515 0 0 -.15515 .4 17)"/><path d="M43.2 98.2c-.4 0-.7.1-.8.5v.4c0 1 .8 2.2 2 2.7h.5c.6 0 1-.5.9-1.2a3 3 0 0 0-1.4-2c-.3-.2-.8-.4-1.2-.4M47.2 101.7l-.3.1c-.1.3.1.6.3.7h.6c.1-.1 0-.3 0-.4a.8.8 0 0 0-.6-.4M51.2 102.4h-.1c-.4.2-.3.7 0 1a1 1 0 0 0 .7.3c.2 0 .4-.1.4-.4v-.3l-.2-.1a1.1 1.1 0 0 0-.8-.5M48.1 72.4a1 1 0 0 0-.5.1c-.5.3-.3 1 0 1.3 0 .4.4.9.7 1 .3.4.8.7 1.3.7.3 0 .5 0 .7-.2.4-.3.3-1 0-1.3-.2-.5-.6-1-1.2-1.3a2 2 0 0 0-1-.3" style="fill:#cadf21;fill-opacity:1;fill-rule:nonzero;stroke:none;stroke-width:.1" transform="matrix(.15515 0 0 -.15515 .4 17)"/><path d="M46.1 72c-.5 0-1-.5-1-1v-.2c-.1-.4.2-.6.5-.6s.6.1.8.3c.3.2.4.4.5.7 0 .4-.1 1-.8.9" style="fill:#569132;fill-opacity:1;fill-rule:nonzero;stroke:none;stroke-width:.1" transform="matrix(.15515 0 0 -.15515 .4 17)"/><path d="M47.6 78.6a1 1 0 0 0-1 .5c-.3.7.4 1.5 1 1.8.8.4 1.6.6 2.4.6 0 .7.6 1.6 1.5 1.7.2.4.5.8 1 1-.1 1.1.5 2.3 1.7 2.7h.4c.7 0 .9-.5 1-1.1l.6.2c.4 0 .9-.2 1.1-.6l.8.2c.2 1.2 1.7 2 2.9 2 .5 0 .9-.2 1-.5.5.3 1 .6 1.5.6l.4-.1c.3.7.8 1.4 1.8 1.6h.6c.4 0 .6 0 .8-.2.3 0 .4-.1.3-.4v-.1l1 .3h.2c.7 0 1-.5.8-1l1 .2.7-.1c1.2-.6-.3-2-.9-2.4l-1.6-1.4-1-.2-1 .1-1.7.7-.6-.7c-.6-.4-1.5-.5-2.3-.5H62c0-1-.9-2-1.8-2h-.4c-.2-.7-.7-1.4-1.6-1.4-1 0-1.5.8-1.7 1.7-.5-.6-1.2-1.1-1.9-1.1a1 1 0 0 0-.6.2 6.6 6.6 0 0 0-2.1-2l-.9-.3a1 1 0 0 0-1 1c-.7-.6-1.6-1-2.3-1M70.8 81.8c-.3 0-.7.1-.7.6s.3 1 .7 1.4c.3.2.8.5 1.3.5h.3c.7-.4.6-1 .2-1.5L72 82h-.1c-.3-.2-.6-.3-1-.3M74.1 83.2c-.2 0-.2.2-.2.3l.2.5.5.3h.2c.2 0 .3 0 .3-.2v-.3l-.1-.1-.2-.3a1 1 0 0 0-.6-.2" style="fill:#5d9908;fill-opacity:1;fill-rule:nonzero;stroke:none;stroke-width:.1" transform="matrix(.15515 0 0 -.15515 .4 17)"/><path d="M31 52.7 27.8 54a17.8 17.8 0 0 0-.9.6l4-2" style="fill:#598f29;fill-opacity:1;fill-rule:nonzero;stroke:none;stroke-width:.1" transform="matrix(.15515 0 0 -.15515 .4 17)"/><path d="M43.3 44.5a26.8 26.8 0 0 0-5.4 4.3l5.4-4.2" style="fill:#7d5610;fill-opacity:1;fill-rule:nonzero;stroke:none;stroke-width:.1" transform="matrix(.15515 0 0 -.15515 .4 17)"/><path d="M43.2 44.5c-3.3 2-6.2 4.5-9.4 6.7-.9.6-1.9 1-2.9 1.5a34.3 34.3 0 0 1-4 2L24 57l.2.1c1.7-1.5 3.6-2.8 5.9-3.7 1.6-.7 3.3-1.2 4.7-2.3l3.1-2.3.3-.4c1.5-1.5 3.3-2.7 5.1-3.9" style="fill:#6e480d;fill-opacity:1;fill-rule:nonzero;stroke:none;stroke-width:.1" transform="matrix(.15515 0 0 -.15515 .4 17)"/><path d="m38.1 49.2-1.3 1-.5 1a26 26 0 0 0-2.6 5.5c1.7-2.4 2.3-5.1 4.6-7.3 0 0 0-.2-.2-.2" style="fill:#7d5610;fill-opacity:1;fill-rule:nonzero;stroke:none;stroke-width:.1" transform="matrix(.15515 0 0 -.15515 .4 17)"/><path d="M36.8 50.3c-1.7 1.8-2.3 4.5-3.4 6.6h.1c.1 0 .2 0 .2-.2v-.2a26 26 0 0 1 3.1-6.2" style="fill:#6e480d;fill-opacity:1;fill-rule:nonzero;stroke:none;stroke-width:.1" transform="matrix(.15515 0 0 -.15515 .4 17)"/><path d="m50.8 36.2-.1.1-.4 3.1c.3-.4.4-1 .5-1.4v-1.8" style="fill:#7d5610;fill-opacity:1;fill-rule:nonzero;stroke:none;stroke-width:.1" transform="matrix(.15515 0 0 -.15515 .4 17)"/><path d="M50.9 36.2V38c-.2.5-.3 1-.6 1.4-.6 4.6-1.8 9.2-3 13.8h.2c1.6-5.4 3.8-11 3.5-16.8l-.1-.2" style="fill:#6e480d;fill-opacity:1;fill-rule:nonzero;stroke:none;stroke-width:.1" transform="matrix(.15515 0 0 -.15515 .4 17)"/><path d="M50.7 22.1v.1l-.4 2.4v3l.1.2a33.2 33.2 0 0 1 .3-5.7m-.4 6.6h-.1c-.5 2.5-.3 5-.8 7.5v.4l-.5 1.7a12 12 0 0 1-2.5 4l-.6.6c1.2-1 2.7-2.2 3.3-3.6.6-1.7 1-3.4 1.1-5 .2-2 .2-3.8.2-5.6" style="fill:#7d5610;fill-opacity:1;fill-rule:nonzero;stroke:none;stroke-width:.1" transform="matrix(.15515 0 0 -.15515 .4 17)"/><path d="M50.3 24.6c-.4 2.6-.3 5.2-.5 7.9a32.6 32.6 0 0 1-.4 3.7c.5-2.5.3-5 .8-7.4l.1-.1h.1a148.3 148.3 0 0 1-.1-1v-3m-4 17.5-.5.7.6-.7" style="fill:#6e480d;fill-opacity:1;fill-rule:nonzero;stroke:none;stroke-width:.1" transform="matrix(.15515 0 0 -.15515 .4 17)"/><path d="m51.6 46.5.1.4a14.8 14.8 0 0 0 0-.4" style="fill:#7d5610;fill-opacity:1;fill-rule:nonzero;stroke:none;stroke-width:.1" transform="matrix(.15515 0 0 -.15515 .4 17)"/><path d="M51.5 46.4c-.2 1.2-.2 2.4-.1 3.6 0 1 .5 1.8.7 2.8h.1c0-1-.5-2-.5-3.1V46.5l-.2-.1" style="fill:#6e480d;fill-opacity:1;fill-rule:nonzero;stroke:none;stroke-width:.1" transform="matrix(.15515 0 0 -.15515 .4 17)"/><path d="M53.3 17.8a21.8 21.8 0 0 0 0 7.2 18.6 18.6 0 0 0 1.2 5.3c-.6-4.1-1.5-8.1-1-12.4l-.2-.1" style="fill:#7d5610;fill-opacity:1;fill-rule:nonzero;stroke:none;stroke-width:.1" transform="matrix(.15515 0 0 -.15515 .4 17)"/><path d="M53.4 17.4v.4l.1.1v-.5m-.5 6.2c.2 3 .9 6.2 1.2 9.3.5 5.5-.9 11 .9 16.3l.3.2v-.2c-1.5-5.1 0-10.2-.5-15.4a52.2 52.2 0 0 0-.5-3.6c-.7-1.7-1-3.4-1.1-5.2l-.3-1.4M55.7 9.7c-.4 1.6-1 3-1.2 4.6-.2 1.5-.1 3-.2 4.5h.1l.5-4.3c.3-1.6.8-3.1 1-4.7l-.2-.1" style="fill:#6e480d;fill-opacity:1;fill-rule:nonzero;stroke:none;stroke-width:.1" transform="matrix(.15515 0 0 -.15515 .4 17)"/><path d="M60 39.5c0 .2.3.3.4.5l.1.1 3 2.4a90.2 90.2 0 0 1 2 1.3l-5.6-4.3" style="fill:#7d5610;fill-opacity:1;fill-rule:nonzero;stroke:none;stroke-width:.1" transform="matrix(.15515 0 0 -.15515 .4 17)"/><path d="M57.2 37.2H57c1.8 2 4.1 3.7 6.3 5.3l-2.9-2.4V40a42.6 42.6 0 0 1-3.3-2.8m6.6 5.6a30 30 0 0 1 4.5 4v-.1a22.6 22.6 0 0 0-3-3l-1.5-1" style="fill:#6e480d;fill-opacity:1;fill-rule:nonzero;stroke:none;stroke-width:.1" transform="matrix(.15515 0 0 -.15515 .4 17)"/><path d="M65.7 40.6v.1c3.5 1 7 1.8 10.4 3 .1 0 .1-.2 0-.2-3-1.6-7-2.2-10.4-2.9M70.5 46.9c-.1 0 0 .1 0 .1l2.9.5c.2 0 0-.2 0-.2-1-.3-2-.4-3-.4" style="fill:#613e0c;fill-opacity:1;fill-rule:nonzero;stroke:none;stroke-width:.1" transform="matrix(.15515 0 0 -.15515 .4 17)"/><path d="M46.7 28.1a11 11 0 0 1-4 2.5c1.7-.2 3-1.2 4-2.5" style="fill:#7d5610;fill-opacity:1;fill-rule:nonzero;stroke:none;stroke-width:.1" transform="matrix(.15515 0 0 -.15515 .4 17)"/><path d="M46.8 28v.1a6.2 6.2 0 0 1-4.2 2.5l.2.1a8.4 8.4 0 0 0 4.1-2.5l-.1-.1" style="fill:#6e480d;fill-opacity:1;fill-rule:nonzero;stroke:none;stroke-width:.1" transform="matrix(.15515 0 0 -.15515 .4 17)"/><path d="M78 54.1a1 1 0 0 0-.7.3c-.6.5 0 1.4.5 1.9.4.3.9.5 1.4.5.3 0 .5 0 .8-.2.5-.4.3-1.1-.1-1.6-.3-.3-.6-.5-1-.6a2 2 0 0 0-.9-.3M74.9 52.3c-.3 0-.6 0-.6.4-.2.3.2.8.5 1 .2.2.5.4.8.4.2 0 .3 0 .5-.2.3-.4 0-.8-.3-1.1-.2-.2-.5-.5-.8-.5h-.1M70.3 52c-.2 0-.3 0-.4.2-.1.2 0 .5.3.6h.1c.1.2.3.3.5.3 0 0 .2 0 .2-.2.2-.2 0-.3 0-.4-.2-.2-.5-.5-.7-.5M64 50c-.4 0-.8.1-.7.6.1.6.6 1 1.2 1.3l.7.2c.2 0 .5-.1.5-.4.2-.6-.3-1.1-.8-1.4-.3-.2-.6-.4-1-.4M90.6 51.1l-.6.2-.2.1v.4c.1.5.5 1 .9 1.3.2.2.7.5 1.2.5h.3c.8-.4.4-1.3 0-1.7-.4-.4-1-.8-1.6-.8M88 48.2l-.3.1c-.3.3 0 .7.4.8a1.6 1.6 0 0 0 .4.2c.3 0 .4-.3.3-.5l-.1-.3a.9.9 0 0 0-.7-.3" style="fill:#397802;fill-opacity:1;fill-rule:nonzero;stroke:none;stroke-width:.1" transform="matrix(.15515 0 0 -.15515 .4 17)"/><path d="M92.6 48.7c-.2 0-.4 0-.5.2l-.1.1-.1.3c0 .7.7 1.2 1.4 1.5.2.2.6.3 1 .3h.4c.7-.4.2-1.2-.2-1.6a3.4 3.4 0 0 0-1.9-.8M88.7 44.8h-.2c-.3.3 0 .5.2.7h.2l.2-.1c.2-.2 0-.5-.2-.5h-.2" style="fill:#2a6302;fill-opacity:1;fill-rule:nonzero;stroke:none;stroke-width:.1" transform="matrix(.15515 0 0 -.15515 .4 17)"/><path d="M38.7 63.3a1 1 0 0 0-.9 1.1l.4.9a1 1 0 0 0-.6.1c-.3.2-.4.4-.5.6-.5-.3-1.2-.6-1.8-.6-.4 0-.8.1-1.1.4-.4.3-.1.8.3 1.2H34c-1 0-1.8.2-1.6 1 .2.6.8 1 1.4 1 0 .2.2.3.3.4.3.3.8.5 1.2.5.3 0 .5 0 .8-.2.2.4.5.7 1 .8h.2c.4 0 .6-.2.7-.5a1.4 1.4 0 0 0 1 .4c.5 0 .8-.4.8-.8.4.2.8.4 1.2.4h.2c1-.2 1.2-.8 1-1.5l.7.1c.7 0 1.3-.3 1.2-1.2-.2-.9-1.6-1.3-2.6-1.3l-.1-.3c-.4-1-1-2.1-2.3-2.5a1 1 0 0 0-.3 0" style="fill:#5d9908;fill-opacity:1;fill-rule:nonzero;stroke:none;stroke-width:.1" transform="matrix(.15515 0 0 -.15515 .4 17)"/><path d="M81.5 45.7h-.2c-.5.2-.7.6-.6 1.1l-.5-.1c-.2 0-.3 0-.5.2-.9.6-.6 1.6.1 2.3-.3 0-.5.3-.5.7 0 .3.2.6.4.9-.9 0-1.7.2-1.7.7-.1.9.6 1.2 1.4 1.3.1.6 1 1.3 1.7 1.4 0 1.2.6 2.8 1.5 3.4l.7.1c.4 0 .8-.2.8-.6v-.8c.3.2.8.3 1.3.3.3 0 .7 0 1-.3l.2-.5a3 3 0 0 0 1.6.6l.6-.1c1.1-.5.5-1.8-.3-2.4.1-.9-.4-2.2-1.3-2.4.2-.6.1-1.1-.3-1.6-.3-.4-.6-.6-1-.6-.2 0-.5.1-.7.3-.1-.6-.3-1.3-.8-1.8-.2-.2-.6-.4-1-.4h-.1l-.5-1c-.2-.2-.8-.7-1.3-.7" style="fill:#6fa727;fill-opacity:1;fill-rule:nonzero;stroke:none;stroke-width:.1" transform="matrix(.15515 0 0 -.15515 .4 17)"/><path d="M30.1 80c-.3 0-.6 0-.8.3-.8 1.2.7 2.5 1.9 3.3-.9.1-1.8.6-1.4 1.4-.7 0-1.3.2-1.5.7-.3.6 0 1.4.5 1.9.5.4 1 .6 1.5.6-.3.4-.3 1 .2 1.4.2.2.6.3.9.3h.2c-.3.9-.2 1.9.8 2.3l.7.2.9-.3c0 .5.3 1 .7 1.2.4.4.8.5 1.1.5.7 0 1.4-.5 2-1 .3 1 1.1 2.4 2.3 2.4l.6-.1c1-.4 1.4-1.1 1.4-1.9.4.3 1 .6 1.5.6.2 0 .5-.1.7-.3l.5-.7c.7.4 1.6.8 2.4.8.7 0 1.3-.3 1.2-1 0-1.4-1.2-2.4-2.5-3l-.4-.3c.2 0 .3-.2.4-.3.3-.2.4-.5.5-.7.5-.2 1-.5 1.2-1 .2-1-.4-1.7-1.3-2-.3-.2-.7-.4-1-.4l-.7-.7a2 2 0 0 0-1-.3c-.5 0-.9.2-1.2.5-.1-.6-.5-1.1-1.1-1.3a1 1 0 0 0-.4-.1c-.6 0-1.2.5-1.6 1l-.5-1.2c-.4-.8-.9-2-1.8-2.4l-.7-.1c-.5 0-.9.3-1 .8l-1-.7c-.4-.2-1-.4-1.5-.4s-.8.2-.9.5c-.5-.3-1.2-.6-1.8-.6" style="fill:#cadf21;fill-opacity:1;fill-rule:nonzero;stroke:none;stroke-width:.1" transform="matrix(.15515 0 0 -.15515 .4 17)"/></svg>